<?xml version="1.0" standalone="no"?>
<!DOCTYPE svg PUBLIC "-//W3C//DTD SVG 20010904//EN"
 "http://www.w3.org/TR/2001/REC-SVG-20010904/DTD/svg10.dtd">
<svg version="1.0" xmlns="http://www.w3.org/2000/svg"
 width="300.000000pt" height="300.000000pt" viewBox="0 0 300.000000 300.000000"
 preserveAspectRatio="xMidYMid meet">
<metadata>
Created by potrace 1.11, written by Peter Selinger 2001-2013
</metadata>
<g transform="translate(0.000000,300.000000) scale(0.100000,-0.100000)"
fill="#000000" stroke="none">
<path d="M0 1500 l0 -1500 1500 0 1500 0 0 1500 0 1500 -1500 0 -1500 0 0
-1500z m1463 467 c142 -54 230 -70 360 -65 l108 5 29 -33 c37 -42 55 -123 42
-182 -9 -37 -8 -44 6 -48 41 -13 47 -22 50 -74 4 -75 -39 -213 -80 -253 -17
-18 -37 -55 -48 -91 -43 -139 -147 -263 -269 -324 -70 -34 -81 -37 -166 -37
-85 0 -96 2 -167 37 -55 28 -92 55 -136 103 -64 68 -125 178 -138 248 -3 22
-15 43 -26 50 -27 16 -53 71 -78 158 -33 119 -23 179 31 179 13 0 19 7 19 23
0 38 29 139 55 193 28 56 76 109 127 137 54 29 161 19 281 -26z m-206 -1210
c147 -77 326 -76 482 2 l58 30 14 -26 c7 -14 27 -36 43 -50 l29 -24 -49 -50
c-102 -104 -268 -156 -416 -131 -84 15 -177 57 -236 107 -65 56 -70 71 -33
107 16 16 33 38 36 49 4 11 10 19 13 17 4 -2 31 -16 59 -31z"/>
<path d="M1215 1637 c-21 -17 -27 -32 -27 -62 0 -65 60 -103 115 -73 32 17 46
39 46 73 0 34 -14 56 -46 73 -33 18 -59 15 -88 -11z"/>
<path d="M1679 1631 c-17 -18 -29 -40 -29 -56 0 -34 50 -85 84 -85 41 0 80 41
80 85 0 29 -7 43 -28 61 -37 32 -71 30 -107 -5z"/>
<path d="M1270 1285 c-30 -37 25 -141 101 -192 74 -49 208 -42 274 15 64 54
106 150 78 177 -22 22 -435 22 -453 0z"/>
</g>
</svg>
